<?xml version="1.0" encoding="UTF-8"?>
<svg version="1.1" xmlns="http://www.w3.org/2000/svg" width="720" height="720">
<path d="M0 0 C2.04162296 -0.00712108 4.08324396 -0.01482284 6.12486267 -0.02307129 C10.36804812 -0.03640543 14.61104771 -0.03813162 18.85424805 -0.03222656 C24.27785584 -0.02629219 29.70058029 -0.05712742 35.12401676 -0.09734344 C39.32517767 -0.1232206 43.52612443 -0.12609874 47.72735405 -0.12245178 C49.72755622 -0.12413804 51.72776881 -0.13373262 53.72789192 -0.15159607 C56.51980161 -0.17382359 59.30990124 -0.16407043 62.10180664 -0.14648438 C62.91595535 -0.15974762 63.73010406 -0.17301086 64.56892395 -0.18667603 C71.41415805 -0.08689415 76.23544637 2.49502748 81.10742188 7.2578125 C86.38401322 15.32284642 89.42359987 24.48991679 92.77734375 33.46875 C93.42089171 35.16313421 94.06541717 36.85714749 94.7109375 38.55078125 C98.01215093 47.24619432 101.18570114 55.97945674 104.25370789 64.75964355 C106.05489609 69.89492808 108.00533932 74.94328172 110.08984375 79.96875 C113.18736018 87.56790996 116.03183679 95.23585678 118.77734375 102.96875 C121.46414803 110.53424031 124.24357603 118.03541474 127.27734375 125.46875 C130.74217455 133.95827565 133.85346221 142.55167739 136.921875 151.19140625 C139.23782131 157.67764763 141.67495203 164.09237189 144.27734375 170.46875 C147.31111415 177.90209183 150.09037724 185.40331542 152.77734375 192.96875 C155.40547626 200.36653891 158.11486409 207.70340711 161.08984375 214.96875 C165.02810069 224.59738636 168.54013141 234.36899042 172.06451416 244.15429688 C175.34968314 253.26751273 178.73871625 262.3111411 182.41015625 271.27734375 C185.48096739 278.83332303 188.19332127 286.50876942 190.92260742 294.19335938 C193.2382563 300.67896785 195.67521549 307.09301741 198.27734375 313.46875 C201.74217455 321.95827565 204.85346221 330.55167739 207.921875 339.19140625 C210.23782332 345.67765325 212.67505297 352.09232741 215.27734375 358.46875 C218.75295037 366.98819302 221.88849406 375.60902298 224.97241211 384.27709961 C228.23066428 393.4125923 231.69723202 402.45515681 235.27734375 411.46875 C239.36661224 411.5437648 243.45560582 411.59775317 247.54541016 411.63354492 C248.93220002 411.64848947 250.31894382 411.66885278 251.70556641 411.69506836 C265.92618155 412.05366953 265.92618155 412.05366953 278.33984375 405.96875 C281.7591586 401.55673084 281.46996498 397.32899028 281.46484375 391.98046875 C281.46403809 391.0738298 281.46323242 390.16719086 281.46240234 389.233078 C281.34394652 375.01293514 280.30770496 360.81258783 279.4230957 346.62390137 C279.03689159 340.41649509 278.65982966 334.20853854 278.28607178 328.00037193 C278.15601252 325.86112606 278.0218714 323.7221664 277.88720703 321.58320618 C276.27552461 295.1609983 278.73634188 271.61998044 296.27734375 250.46875 C297.61268657 248.80369291 298.94649787 247.13740359 300.27734375 245.46875 C299.44203125 244.64697266 299.44203125 244.64697266 298.58984375 243.80859375 C282.98309754 227.59550436 277.08346042 206.64362198 277.27734375 184.43359375 C277.54026717 172.3965763 278.26715316 160.38551791 279.01953125 148.37109375 C279.08596329 147.30710358 279.15239532 146.2431134 279.22084045 145.1468811 C279.55450607 139.83590582 279.89837381 134.52590915 280.26049805 129.21679688 C280.91447711 119.43430883 281.45152602 109.65176476 281.6171875 99.84765625 C281.65931114 98.55902931 281.65931114 98.55902931 281.70228577 97.24436951 C281.73832611 91.82838406 280.91381392 88.74852181 277.27734375 84.46875 C274.96461804 82.96776816 274.96461804 82.96776816 272.40234375 82.15625 C271.57992188 81.85074219 270.7575 81.54523438 269.91015625 81.23046875 C264.66958782 79.71428055 259.63102822 79.34304872 254.19140625 79.29296875 C252.83461988 79.26977202 251.47784899 79.24565474 250.12109375 79.22070312 C248.01258894 79.18567569 245.90465835 79.15626475 243.79589844 79.14282227 C226.87521717 79.01427572 226.87521717 79.01427572 220.21875 72.43359375 C219.76371094 71.76457031 219.30867188 71.09554687 218.83984375 70.40625 C218.36675781 69.73464844 217.89367187 69.06304687 217.40625 68.37109375 C215.50263346 65.16326934 215.14403255 62.49675332 215.1003418 58.84887695 C215.08750656 57.91392899 215.07467133 56.97898102 215.06144714 56.01570129 C215.05036674 54.50165962 215.05036674 54.50165962 215.0390625 52.95703125 C215.03099075 51.91483932 215.02291901 50.8726474 215.01460266 49.7988739 C215.00076621 47.59062359 214.99004209 45.38235192 214.98217773 43.17407227 C214.96499878 39.8115939 214.92111167 36.45010746 214.87695312 33.08789062 C214.86682289 30.94011138 214.85830783 28.79232379 214.8515625 26.64453125 C214.83405441 25.64529129 214.81654633 24.64605133 214.79850769 23.61653137 C214.82079984 16.37234863 216.10458521 10.67804703 221.3125 5.41015625 C221.98152344 4.95511719 222.65054687 4.50007813 223.33984375 4.03125 C224.01144531 3.55816406 224.68304688 3.08507812 225.375 2.59765625 C228.51006519 0.73721716 231.11266925 0.33883049 234.6784668 0.30761719 C235.56757248 0.29800964 236.45667816 0.2884021 237.37272644 0.27850342 C238.33511734 0.27425354 239.29750824 0.27000366 240.2890625 0.265625 C241.79059624 0.25707489 241.79059624 0.25707489 243.32246399 0.24835205 C245.45007267 0.2388945 247.57769605 0.23236508 249.70532227 0.22851562 C252.90733957 0.21892228 256.10868337 0.18795407 259.31054688 0.15625 C271.01669712 0.0953619 281.88571402 0.65097113 293.27734375 3.46875 C294.09162842 3.66227051 294.90591309 3.85579102 295.74487305 4.05517578 C320.31358688 10.3294203 342.34061726 25.06951894 355.375 47.0234375 C363.25231834 61.28995655 366.47929228 76.21048497 366.46484375 92.3984375 C366.46403809 93.38109589 366.46323242 94.36375427 366.46240234 95.37619019 C366.34946355 109.80481312 365.24188654 124.20235158 364.27734375 138.59375 C362.6984914 160.97662586 362.6984914 160.97662586 362.02734375 183.3984375 C362.01815918 184.19009308 362.00897461 184.98174866 361.99951172 185.7973938 C362.03050312 191.52700642 362.99798759 196.89242191 364.27734375 202.46875 C375.1706373 205.21852359 385.9080043 205.76315175 397.09375 205.83984375 C397.80560833 205.84526814 398.51746666 205.85069252 399.25089645 205.85628128 C405.20850633 205.89724079 411.16610168 205.90762443 417.12384033 205.90539551 C421.59490738 205.90372395 426.06534137 205.91753239 430.53626823 205.95387459 C432.60592921 205.96458338 434.67464905 205.95265574 436.74427795 205.94004822 C444.98340522 206.00536503 451.21859952 206.45621538 457.3359375 212.50390625 C457.79097656 213.17292969 458.24601563 213.84195313 458.71484375 214.53125 C459.18792969 215.20285156 459.66101563 215.87445313 460.1484375 216.56640625 C462.05205404 219.77423066 462.41065495 222.44074668 462.4543457 226.08862305 C462.46718094 227.02357101 462.48001617 227.95851898 462.49324036 228.92179871 C462.50432076 230.43584038 462.50432076 230.43584038 462.515625 231.98046875 C462.52369675 233.02266068 462.53176849 234.0648526 462.54008484 235.1386261 C462.55392129 237.34687641 462.56464541 239.55514808 462.57250977 241.76342773 C462.58968872 245.1259061 462.63357583 248.48739254 462.67773438 251.84960938 C462.68786461 253.99738862 462.69637967 256.14517621 462.703125 258.29296875 C462.72063309 259.29220871 462.73814117 260.29144867 462.75617981 261.32096863 C462.73388766 268.56515137 461.45010229 274.25945297 456.2421875 279.52734375 C455.57316406 279.98238281 454.90414062 280.43742187 454.21484375 280.90625 C453.54324219 281.37933594 452.87164063 281.85242188 452.1796875 282.33984375 C448.71367859 284.3966745 445.8396135 284.6036607 441.89819336 284.64233398 C440.79531479 284.65582382 439.69243622 284.66931366 438.55613708 284.68321228 C437.35940872 284.69365067 436.16268036 284.70408905 434.9296875 284.71484375 C432.37825242 284.74783158 429.8268202 284.78104225 427.27539062 284.81445312 C423.26720915 284.86249533 419.25900548 284.90581211 415.25073242 284.94555664 C397.0203612 285.06100502 397.0203612 285.06100502 378.84375 286.31640625 C378.15884995 286.38435898 377.47394989 286.45231171 376.76829529 286.52232361 C372.16013425 287.0874116 368.25046464 288.03859465 364.27734375 290.46875 C362.01931669 296.18205473 361.96197365 301.81708231 362.02734375 307.90625 C362.03266113 308.84235107 362.03797852 309.77845215 362.04345703 310.74291992 C362.22404586 325.00372251 363.3247544 339.24293707 364.27734375 353.46875 C366.45348255 385.96684966 366.45348255 385.96684966 366.48046875 398.9921875 C366.48481934 400.26763428 366.48481934 400.26763428 366.48925781 401.56884766 C366.30037077 424.83028699 357.03791934 446.26940652 341.08984375 463.09375 C324.47070607 478.97677596 302.19197476 488.28145857 279.45385742 490.58056641 C278.63753688 490.66408167 277.82121634 490.74759693 276.98015881 490.83364296 C267.76771965 491.70670034 258.57512847 491.79689021 249.328125 491.8046875 C247.49114384 491.81113903 245.65416364 491.81786898 243.81718445 491.82485962 C240.00969047 491.83669895 236.20228642 491.8405533 232.39477539 491.83935547 C227.5318419 491.83915042 222.66948057 491.86670244 217.80668354 491.90089989 C214.03103497 491.92316431 210.25552583 491.92719352 206.47981834 491.92613602 C204.68615899 491.92848299 202.89249527 491.93725516 201.09890175 491.95280075 C198.59717885 491.97249844 196.09671585 491.96661386 193.5949707 491.95458984 C192.86812073 491.96582886 192.14127075 491.97706787 191.39239502 491.98864746 C185.16760703 491.91300286 180.15188816 489.80898847 175.32421875 485.87866211 C171.53295783 481.28875267 169.33352653 476.59418447 167.27734375 471.03125 C166.93904541 470.15090088 166.60074707 469.27055176 166.25219727 468.36352539 C165.24665682 465.73695778 164.2605038 463.10376165 163.27734375 460.46875 C162.74581468 459.06992335 162.21334593 457.67145318 161.6796875 456.2734375 C159.61033127 450.82665221 157.6022392 445.35760733 155.59765625 439.88671875 C155.01184797 438.28901512 154.42590881 436.69135946 153.83984375 435.09375 C153.54787109 434.29718994 153.25589844 433.50062988 152.95507812 432.67993164 C150.94084595 427.20774978 148.84870724 421.77026379 146.71484375 416.34375 C144.46866722 410.63161895 142.34460954 404.89487551 140.33984375 399.09375 C137.85592653 391.91882801 135.08658278 384.88077167 132.24072266 377.8425293 C128.50418427 368.59223134 125.02971156 359.25345123 121.59765625 349.88671875 C121.01190091 348.28899571 120.4259611 346.69134028 119.83984375 345.09375 C119.54787109 344.29791504 119.25589844 343.50208008 118.95507812 342.68212891 C116.65365833 336.43415351 114.2583612 330.22607925 111.83227539 324.02563477 C108.310452 315.0173059 104.92093704 305.96081724 101.59375 296.87890625 C101.00920723 295.28382021 100.42457066 293.68876855 99.83984375 292.09375 C99.54795166 291.29735107 99.25605957 290.50095215 98.95532227 289.68041992 C96.94089932 284.20811634 94.84877355 278.77043242 92.71484375 273.34375 C90.46866722 267.63161895 88.34460954 261.89487551 86.33984375 256.09375 C83.85592653 248.91882801 81.08658278 241.88077167 78.24072266 234.8425293 C74.50418427 225.59223134 71.02971156 216.25345123 67.59765625 206.88671875 C67.01184797 205.28901512 66.42590881 203.69135946 65.83984375 202.09375 C65.54787109 201.29718994 65.25589844 200.50062988 64.95507812 199.67993164 C62.94084595 194.20774978 60.84870724 188.77026379 58.71484375 183.34375 C56.46867152 177.63162989 54.34437591 171.89495022 52.33984375 166.09375 C50.18732302 159.868834 47.82258158 153.75664084 45.33984375 147.65625 C42.6003453 140.92452089 40.06720983 134.15775453 37.71484375 127.28125 C35.59476504 121.08414297 33.32943485 115.00096533 30.77734375 108.96875 C28.07037181 102.56486294 25.63958987 96.09256647 23.33984375 89.53125 C22.87964844 88.22414062 22.87964844 88.22414062 22.41015625 86.890625 C20.27734375 80.7280746 20.27734375 80.7280746 20.27734375 78.46875 C-3.68150312 77.45078402 -3.68150312 77.45078402 -24.72265625 86.46875 C-27.07567522 92.49438641 -26.85960963 97.95077998 -26.53515625 104.34375 C-26.48689697 105.47506348 -26.4386377 106.60637695 -26.38891602 107.77197266 C-26.01584454 115.89582639 -25.50619124 124.00976524 -24.98046875 132.125 C-22.42762325 171.54697024 -22.42762325 171.54697024 -22.34765625 186.15625 C-22.33404053 187.23245605 -22.3204248 188.30866211 -22.30639648 189.41748047 C-22.4321483 211.02956637 -31.14030862 230.76468332 -45.72265625 246.46875 C-45.29855469 246.84644531 -44.87445313 247.22414063 -44.4375 247.61328125 C-31.27232339 259.96829314 -23.36600823 278.36642083 -22.6008606 296.32783508 C-22.53816647 299.68301959 -22.52208456 303.03484747 -22.52734375 306.390625 C-22.52871338 307.65054764 -22.53008301 308.91047028 -22.53149414 310.20857239 C-22.62921419 324.84209371 -23.58175396 339.41340749 -24.5769043 354.00866699 C-24.96706516 359.75749459 -25.34076903 365.50741263 -25.71392822 371.25736427 C-25.84340525 373.22826018 -25.97801221 375.19881699 -26.11279297 377.1693573 C-27.81147125 392.27461495 -27.81147125 392.27461495 -23.72265625 406.46875 C-17.54943232 411.40187817 -9.86798637 411.58084513 -2.26953125 411.609375 C-0.8307134 411.62770837 0.60808911 411.64727917 2.046875 411.66796875 C4.2826542 411.69681436 6.51744107 411.71874783 8.75341797 411.71923828 C17.61551567 411.73295973 25.93594589 411.78112644 33.27734375 417.46875 C37.19408537 422.26081561 39.37958426 426.8465589 39.4543457 433.08862305 C39.47359856 434.491045 39.47359856 434.491045 39.49324036 435.92179871 C39.50062729 436.93115982 39.50801422 437.94052094 39.515625 438.98046875 C39.52369675 440.02266068 39.53176849 441.0648526 39.54008484 442.1386261 C39.55392129 444.34687641 39.56464541 446.55514808 39.57250977 448.76342773 C39.58968872 452.1259061 39.63357583 455.48739254 39.67773438 458.84960938 C39.68786461 460.99738862 39.69637967 463.14517621 39.703125 465.29296875 C39.72938713 466.79182869 39.72938713 466.79182869 39.75617981 468.32096863 C39.7350388 475.19106836 38.66205493 480.82012885 33.8651886 485.99101257 C28.41207905 490.8270504 23.48771127 491.77319222 16.3984375 491.734375 C15.63812729 491.73724014 14.87781708 491.74010529 14.09446716 491.74305725 C11.63439505 491.74742522 9.17486185 491.73490016 6.71484375 491.71875 C5.87721497 491.71531586 5.03958618 491.71188171 4.17657471 491.70834351 C-29.09654855 491.54756716 -60.3892451 487.29422001 -85.72265625 463.46875 C-103.73756098 444.38152952 -111.15139648 423.77229137 -111.09765625 397.84375 C-111.09910645 397.12061615 -111.10055664 396.3974823 -111.10205078 395.6524353 C-111.09763949 374.92513834 -109.51998552 354.22246843 -108.14599609 333.55029297 C-108.09968866 332.8502757 -108.05338123 332.15025843 -108.00567055 331.42902851 C-107.78596744 328.1119465 -107.56257398 324.79524906 -107.33242798 321.47886658 C-105.64832677 305.18591075 -105.64832677 305.18591075 -110.28515625 289.96875 C-120.48002443 283.69498497 -136.05100062 285.33791355 -147.51953125 285.328125 C-150.13282135 285.30981672 -152.74610288 285.29024829 -155.359375 285.26953125 C-159.42991448 285.23918225 -163.50013709 285.21644213 -167.57080078 285.21826172 C-171.53321538 285.21920337 -175.49481035 285.18040873 -179.45703125 285.140625 C-180.66864929 285.1476947 -181.88026733 285.1547644 -183.12860107 285.16204834 C-190.27543281 285.05930783 -195.23822418 284.24683863 -200.72265625 279.46875 C-204.74491956 275.12893959 -206.95499525 271.50453555 -207.02905273 265.55175781 C-207.04504013 264.57684387 -207.06102753 263.60192993 -207.07749939 262.59747314 C-207.08286209 261.54952576 -207.08822479 260.50157837 -207.09375 259.421875 C-207.10277847 258.33670593 -207.11180695 257.25153687 -207.12110901 256.13348389 C-207.13561343 253.83706419 -207.14449871 251.54060315 -207.14819336 249.24414062 C-207.1600659 245.74537685 -207.20923222 242.2483904 -207.25976562 238.75 C-207.26923294 236.51563358 -207.2764665 234.28125636 -207.28125 232.046875 C-207.30078232 231.00702454 -207.32031464 229.96717407 -207.34043884 228.89581299 C-207.29888191 222.14355122 -206.11003359 217.68610612 -201.72265625 212.46875 C-196.7448117 207.85513798 -193.10554829 206.22492956 -186.32446289 206.18164062 C-185.02533463 206.16822632 -183.72620636 206.15481201 -182.38771057 206.14099121 C-181.69512209 206.13842819 -181.00253361 206.13586517 -180.2889576 206.13322449 C-178.10477106 206.12489304 -175.92099427 206.10434226 -173.73692322 206.08068848 C-169.08639586 206.03251549 -164.4358262 205.99963589 -159.78515625 205.96875 C-154.42214369 205.93286627 -149.05932718 205.89044583 -143.69650078 205.83280945 C-141.5670119 205.81304933 -139.43768117 205.80448015 -137.30812073 205.79650879 C-123.05737328 206.39932206 -123.05737328 206.39932206 -110.41461182 201.54452515 C-105.51759883 195.53662633 -106.48466757 185.69398572 -106.91015625 178.34375 C-106.95841553 177.31934814 -107.0066748 176.29494629 -107.05639648 175.23950195 C-107.44095129 167.55649603 -107.954755 159.88249445 -108.46484375 152.20703125 C-111.02057013 113.52656487 -111.02057013 113.52656487 -111.09765625 94.28125 C-111.10523956 93.56456146 -111.11282288 92.84787292 -111.12063599 92.10946655 C-111.31972042 69.24998669 -104.13443669 47.21818457 -88.24609375 30.43432617 C-82.89850393 25.07045363 -77.17929093 20.43731845 -70.72265625 16.46875 C-69.954375 15.97117188 -69.18609375 15.47359375 -68.39453125 14.9609375 C-62.43785781 11.3831871 -56.14354655 9.02711534 -49.59765625 6.78125 C-48.78192139 6.49572266 -47.96618652 6.21019531 -47.12573242 5.91601562 C-31.60023281 0.81010375 -16.20579702 -0.00696555 0 0 Z " fill="#00A1A1" transform="translate(232.72265625,114.53125)"/>
</svg>
